<?xml version="1.0" encoding="utf-8"?>
<!-- Generator: Adobe Illustrator 24.1.0, SVG Export Plug-In . SVG Version: 6.00 Build 0)  -->
<svg version="1.1" id="logo" xmlns="http://www.w3.org/2000/svg" xmlns:xlink="http://www.w3.org/1999/xlink" x="0px" y="0px"
	 viewBox="0 0 1024 1024" style="enable-background:new 0 0 1024 1024;" xml:space="preserve">
<style type="text/css">
	.st0{fill:#0F8C44;}
	.st1{fill:#EFEFEF;}
	.st2{fill:#C32C36;}
</style>
<g>
	<path id="head" class="st0" d="M419.1,287.5c-52.2-37.3-104.4-74.6-156.5-112c-5.7-4-11.7-6.3-18.5-7.1
		c-22.3-2.3-37.7,17.4-55.4,28c-53.5,37.9-107.1,75.9-160.6,113.8c-6.4,4.6-9.2,12.1-7.5,19.5c3.5,18.1,24.4,14.6,39.5,14.5
		c59.3-0.7,118.6-1.4,178-2c3.3,0,3.3,0,3.3,3.3c2.3,70.2-4.7,141.7,2.7,211.3c82.6-72.5,165-144.9,247.6-217.4
		C467.6,322.1,443.3,304.9,419.1,287.5z"/>
	<path id="body" class="st1" d="M732.1,138.5c-161,141.4-322.1,282.6-483,424c-8.2,9.7,74.2,61.5,86,70
		c55.4-0.4,110.8-1.5,166.1-1.5c0-0.1,0-0.3,0-0.4c74.1-1.3,150.4,0.2,223.6-3.1c10.9-135,22.1-269.9,33-404.9
		c1.9-22.6,3.8-45.1,5.6-67.7C765.5,138.2,745,127.1,732.1,138.5z"/>
	<path id="tail" class="st2" d="M987.5,632.7c-216.9,1.6-434.3,4.4-651.4,6.8c121.2,82.1,237.1,178.1,363.1,250.5
		c9.6,1.2,19.8-1.9,27.5-7.8c83.5-66.8,167-133.7,250.4-200.4c9-8.9,24.7-14.5,26.4-28.5C1004.6,643.3,997.8,634,987.5,632.7z"/>
</g>
</svg>
